<svg xmlns="http://www.w3.org/2000/svg" xmlns:xlink="http://www.w3.org/1999/xlink" style="enable-background:new 0 0 5600 3700" x="0" y="0" version="1.1" viewBox="0 0 5600 3700" xml:space="preserve"><style type="text/css">.st0{fill:#fff}.st1{fill:#cecece}.st2{fill:#e0e0e0}.st3{fill:#ededed}.st4{fill:#939393}.st5{fill:#9e9e9e}.st6{opacity:.08;fill:#020202}.st7{fill:#777}.st8{fill:#bfbfbf}.st9{fill:#e6e7e9}.st10{fill:#b8b9bb}.st11{fill:#fefcfe}.st12{fill:#42210b}.st13{fill:#6b3e1f}.st14{fill:#1b1f21}.st15{fill:#475059}.st16{fill:#f9f9f7}.st17{fill:#f4ba2e}.st18{fill:#ffdb92}.st19{fill:#ffcc5a}.st20{fill:#2d3538}.st21{fill:#cecfd1}.st22{opacity:.15;fill:#231f20}.st23{fill:#f6f4f4}.st24{opacity:.2;fill:#231f20}.st25{fill:#dedede}.st26{fill:#3a4349}.st27{fill:#252b2d}.st28{fill:#414a51}.st29{fill:#323b3f}.st30{fill:#8e6040}.st32{fill:#eaeaea}.st33{fill:#b2b2b2}.st34{fill:#848484}.st35{fill:#3f4d50}.st36{opacity:.26;fill:#020202}.st37{fill:#edbe85}.st38{fill:#fff2e6}.st39{fill:#e2e2e2}.st40{fill:#31373a}.yellow{fill:#f9cc41}.darkYellow{fill:#e4ae07}</style><g id="Layer_5"><rect width="14" height="168.72" x="1184.57" y="2810.01" class="st0" transform="matrix(-0.3696 0.9292 -0.9292 -0.3696 4321.396 2856.7625)"/><rect width="14" height="8.97" x="1109.91" y="2860.19" class="st1" transform="matrix(0.3695 -0.9292 0.9292 0.3695 -1957.7308 2843.8782)"/><path d="M1109.19,2883.03l14.65-36.84c0.39-0.97-0.09-2.08-1.06-2.47l-43.8-17.42c-0.97-0.39-2.08,0.09-2.47,1.06 l-14.65,36.84c-0.39,0.97,0.09,2.08,1.06,2.47l43.8,17.42C1107.7,2884.48,1108.8,2884,1109.19,2883.03z" class="st0"/><g><path d="M1063.93,2873.12l20-50.29c2.14-5.37-0.51-11.51-5.88-13.65l-88.12-35.05c-5.37-2.14-11.51,0.51-13.65,5.88 l-20,50.29c-2.14,5.37,0.51,11.51,5.88,13.65l88.12,35.05C1055.65,2881.14,1061.79,2878.49,1063.93,2873.12z" class="st0"/><path d="M1054.15,2881.74c-1.54,0-3.1-0.28-4.61-0.89l-88.12-35.05c-3.09-1.23-5.53-3.6-6.85-6.68 s-1.38-6.47-0.15-9.57l20-50.29c1.23-3.09,3.6-5.53,6.68-6.85c3.08-1.33,6.47-1.38,9.57-0.15l88.12,35.04 c6.41,2.55,9.55,9.84,7,16.25l-20,50.29C1063.84,2878.75,1059.13,2881.74,1054.15,2881.74z M986.07,2775.38 c-1.15,0-2.29,0.24-3.39,0.71c-2.1,0.9-3.71,2.56-4.54,4.66l-20,50.29c-0.84,2.1-0.8,4.41,0.1,6.51c0.9,2.1,2.56,3.71,4.66,4.54 l88.12,35.05c4.36,1.73,9.32-0.4,11.05-4.76l20-50.29c1.73-4.36-0.4-9.32-4.76-11.05l-88.12-35.04 C988.18,2775.58,987.13,2775.38,986.07,2775.38z" class="st2"/></g><path d="M306.21,2350.46l-131.99,331.87c-9.68,24.33,2.2,51.9,26.53,61.57l653.14,259.76 c24.33,9.68,51.9-2.2,61.57-26.53l131.99-331.87c9.68-24.33-2.2-51.9-26.53-61.57l-653.14-259.76 C343.45,2314.25,315.88,2326.13,306.21,2350.46z" class="st3"/><rect width="426.22" height="621" x="398.99" y="2353.66" class="st4" transform="matrix(0.3695 -0.9292 0.9292 0.3695 -2089.6614 2248.3901)"/><path d="M955.68,2736.57l-43.9,110.38c-1.37,3.44,0.31,7.33,3.75,8.7l0,0c3.44,1.37,7.33-0.31,8.7-3.75l43.9-110.38 c1.37-3.44-0.31-7.33-3.75-8.7l0,0C960.94,2731.45,957.05,2733.13,955.68,2736.57z" class="st5"/><path d="M1021.07,2583.57l-653.14-259.76c-24.33-9.68-51.92,2.36-61.6,26.69l-17.97,45.17l681.25,445.29l77.79-195.74 C1057.08,2620.91,1045.4,2593.25,1021.07,2583.57z" class="st6"/><rect width="14.08" height="51.17" x="1020.07" y="2803.2" class="st2" transform="matrix(0.3695 -0.9292 0.9292 0.3695 -1981.0002 2737.8071)"/><path d="M550.67,3240.16c15.56-27.5,39.01-49.39,62.03-68.95c12.44-10.57,25.67-21.28,40.04-30.65 c0.96-17.59,4.88-35.9,11.71-54.36c11.41-30.82,29.69-58.98,46.07-82.47c14.94-21.42,33.01-45.38,58.59-58.6 c25.23-13.04,57.63-15.24,91.23-6.21c18.1,4.87,36.18,13.34,53.66,21.54c11.02,5.17,21.43,10.05,31.78,14.06 c45.07,17.47,91.66,35.54,140.01,42.67c37.38,5.52,91.89,6.35,139.3-21.01c24.45-14.11,44.12-33.83,63.62-55.42l-30.72-12.42 l5.25-12.98l35.38,14.31c1.19-1.35,2.39-2.7,3.58-4.05c18.66-21.12,37.96-42.96,60.83-60.38c11.63-8.86,29.49-20.61,50.26-20.38 c22.89,0.26,44.47,16.07,52.48,38.46c7.48,20.91,2.69,45.97-12.21,63.84c-13.86,16.62-35.85,26.74-58.81,27.05 c-22.56,0.31-43.95-8.34-62.82-15.97l-29.41-11.89c-20.81,23.24-42.9,46.08-70.43,61.97c-50.9,29.38-108.77,28.58-148.35,22.74 c-49.9-7.37-97.24-25.72-143.03-43.47c-10.8-4.19-21.91-9.4-32.66-14.44c-16.93-7.94-34.45-16.15-51.35-20.7 c-30.22-8.12-59.04-6.3-81.17,5.13c-22.74,11.75-38.92,33.2-53.54,54.17c-16.67,23.91-33.59,50.06-44.43,79.32 c-5.09,13.76-8.44,27.39-10.02,40.6c3.71-2.03,7.5-3.96,11.36-5.75c19.42-9,49.21-18.27,80.88-11.37 c29.4,6.41,54.06,27.12,62.84,52.77c8.01,23.42,2.82,50.73-13.2,69.59c-21.36,25.12-60.52,33.29-93.13,19.41 c-28.82-12.27-51.83-40.92-60.03-74.79c-1.88-7.75-3.05-15.79-3.53-24.05c-10.9,7.68-21.19,16.08-30.99,24.41 c-22.04,18.72-44.43,39.58-58.91,65.18c-15.56,27.5-19.39,57.17-10.5,81.41c1.4,3.81,3.11,7.52,4.92,11.46 c2.82,6.12,5.74,12.46,7.51,19.4c2.98,11.72,2.18,27.65-9.03,37.21l-9.09-10.65c6.33-5.4,6.4-15.82,4.55-23.1 c-1.45-5.7-3.98-11.19-6.66-17c-1.85-4.01-3.76-8.16-5.35-12.49c-8.43-22.97-7.17-49.85,3.18-75.88 C544.69,3251.6,547.46,3245.83,550.67,3240.16z M809.4,3171.84c-7.22-21.11-27.86-38.23-52.57-43.62 c-27.87-6.07-54.55,2.3-72.02,10.39c-6.29,2.91-12.39,6.23-18.3,9.82c-0.04,10.34,1.08,20.32,3.38,29.79 c7.19,29.65,27.08,54.64,51.91,65.21c26.67,11.35,59.77,4.65,76.98-15.6c3.98-4.68,7.13-10.02,9.39-15.71 C813.24,3199.39,813.85,3184.87,809.4,3171.84z M1452.6,2888.04c-5.98-16.72-22.58-28.99-39.46-29.18 c-12.52-0.14-25.75,5.42-41.62,17.51c-21.77,16.59-40.61,37.9-58.83,58.52c-0.1,0.12-0.2,0.23-0.31,0.35l24.8,10.03 c17.64,7.14,37.64,15.22,57.38,14.95c18.93-0.26,36.97-8.49,48.25-22.02c3.68-4.42,6.59-9.37,8.67-14.6 C1456.06,2912.08,1456.62,2899.27,1452.6,2888.04z" class="st0"/><path d="M658.98,3563.42c-42.88-9.23-73.36-23.38-95.93-44.55c-28.02-26.28-40.57-64.59-32.05-96.65 c-2.98,2.28-6,4.49-8.99,6.64c-56.97,40.9-123.16,71.02-191.42,87.11l-3.21-13.63c66.49-15.67,130.97-45.02,186.47-84.86 c18.43-13.23,38.09-28.91,38.15-47.66l13.96-0.75c1.71,15.46-4.72,25.5-10.94,35.2c-3.54,5.52-7.2,11.23-9.5,18.22 c-10.53,32.08,6.03,66.38,27.11,86.16c20.63,19.35,49.01,32.4,89.3,41.07L658.98,3563.42z" class="st0"/><ellipse cx="219.33" cy="3475.94" class="st7" rx="61.39" ry="12.76" transform="matrix(0.9292 -0.3697 0.3697 0.9292 -1269.5203 327.3536)"/><path d="M170.03,3489.72c-12.75,4.02-20.43,26.49-7.29,35.43c17.76,12.08,36.95,21.11,41.23,22.89l-23.68,9.42 c-6.5,2.59-9.37,10.28-6.66,17.09l0.53,1.33c2.71,6.81,10.02,10.27,16.51,7.68l167.1-66.49l-10.39-26.1l-69.34,27.59 c1.62-5.29,10.07-33.31,12.63-40.64c3.43-9.86-1.1-17.55-1.1-17.55c-1.62-2.81-3.55-4.87-5.55-6.41c-5.18-4-12.53-5.95-17.84-2.5 C249.28,3462.43,184.21,3485.25,170.03,3489.72z" class="st0"/><path d="M415.26,3470.61l5.83,14.64c1.29,3.23-0.29,6.9-3.53,8.19l-78.15,31.09l-10.49-26.36l78.15-31.09 C410.31,3465.79,413.98,3467.37,415.26,3470.61z" class="st8"/><ellipse cx="808.4" cy="3538.26" class="st7" rx="12.76" ry="61.39" transform="matrix(0.3697 -0.9292 0.9292 0.3697 -2778.0449 2981.282)"/><path d="M857.69,3552.04c12.75,4.02,20.43,26.49,7.29,35.43c-17.76,12.08-36.95,21.11-41.23,22.89l23.68,9.42 c6.5,2.59,9.37,10.28,6.66,17.09l-0.53,1.33c-2.71,6.81-10.02,10.27-16.51,7.68l-167.1-66.49l10.39-26.1l69.34,27.59 c-1.62-5.29-10.07-33.31-12.63-40.64c-3.43-9.86,1.1-17.55,1.1-17.55c1.62-2.81,3.55-4.87,5.55-6.41c5.18-4,12.53-5.95,17.84-2.5 C778.45,3524.75,843.52,3547.57,857.69,3552.04z" class="st0"/><path d="M612.46,3532.92l-5.83,14.64c-1.29,3.23,0.29,6.9,3.53,8.19l78.15,31.09l10.49-26.36l-78.15-31.09 C617.41,3528.11,613.75,3529.69,612.46,3532.92z" class="st8"/></g><g id="Layer_6"><g><path d="M2425.85,3089.49c0,19.18-1.41,38.06-4.09,56.5c-27.36,188.07-189.26,332.43-384.83,332.43 c-5.65,0-11.23-0.15-16.8-0.37c-207.02-8.77-372.19-179.37-372.19-388.55c0-214.83,174.17-388.92,388.99-388.92 C2251.68,2700.57,2425.85,2874.66,2425.85,3089.49z" class="st9"/><path d="M2036.93,2689.42c-220.63,0-400.15,179.44-400.15,400.07c0,215.05,168.14,390.63,382.9,399.7 c4.16,0.15,8.33,0.3,12.49,0.3l-11.38-11.45l-11.74-11.82c-197.21-14.2-349.97-177.59-349.97-376.73 c0-208.29,169.48-377.77,377.84-377.77c208.29,0,377.77,169.48,377.77,377.77c0,15.09-0.89,30.4-2.75,45.42l9.96,9.96l9.74,9.74 c0.44-2.3,0.74-4.61,1.11-6.99c2.82-19.25,4.24-38.8,4.24-58.13C2437,2868.86,2257.55,2689.42,2036.93,2689.42z" class="st0"/></g><path d="M2431.65,3154.6c-31.3,191.41-199.82,334.95-394.72,334.95c-1.64,0-3.2,0-4.76-0.07l-11.38-11.45l-11.74-11.82 c3.79,0.3,7.65,0.52,11.52,0.67c5.43,0.22,10.85,0.37,16.36,0.37c186.36,0,346.99-138.78,373.83-322.91 c0.45-3.12,0.89-6.32,1.19-9.44l9.96,9.96L2431.65,3154.6z" class="st5"/><path d="M2411.95,3134.91c-0.3,3.12-0.74,6.32-1.19,9.44c-26.83,184.13-187.47,322.91-373.83,322.91 c-5.5,0-10.93-0.15-16.36-0.37c-3.87-0.15-7.73-0.37-11.52-0.67l-342.31-345.58l552.83-177.59L2411.95,3134.91z" class="st10"/><path d="M1679.06,3120.66h135c0.21,0,0.38-0.17,0.38-0.38v-54.9c0-2.89-2.37-5.26-5.26-5.26h-129.37 c-16.86,0-30.65,13.79-30.65,30.65v0C1649.17,3107.21,1662.62,3120.66,1679.06,3120.66z" class="st11"/><ellipse cx="2036.9" cy="3089.49" class="st11" rx="233" ry="233" transform="matrix(0.7071 -0.7071 0.7071 0.7071 -1588.0024 2345.199)"/><path d="M2229.16,3089.49c0,106.23-86.08,192.31-192.23,192.31c-60.29,0-114.03-27.73-149.26-71.14 c-26.99-33-43.04-75.23-43.04-121.17c0-106.22,86.08-192.3,192.31-192.3c74.78,0,139.6,42.74,171.34,105.18 C2221.65,3028.53,2229.16,3058.12,2229.16,3089.49z" class="st12"/><path d="M2229.16,3089.49c0,106.23-86.08,192.31-192.23,192.31c-60.29,0-114.03-27.73-149.26-71.14 c-13.38-26.17-20.89-55.75-20.89-87.12c0-106.15,86.08-192.31,192.23-192.31c60.28,0,114.03,27.73,149.27,71.14 C2221.65,3028.53,2229.16,3058.12,2229.16,3089.49z" class="st13"/></g><g id="Layer_7"><path d="M2825.5,1029.86l-476.84,414.46l-693.93-798.38l476.83-414.46c28.65-24.9,72.06-21.86,96.95,6.79l37.46,43.1 l1.54,1.77l35.47,40.8l1.54,1.77l33.93,39.04l1.54,1.77l33.93,39.03l1.54,1.77l33.93,39.03l1.54,1.78l421.35,484.77 c3.04,3.5,5.67,7.22,7.87,11.1c0.41,0.69,0.79,1.4,1.16,2.11C2855.78,973.68,2850.02,1008.55,2825.5,1029.86z" class="st11"/><path d="M1732.74,644.31c6.46,7.43,6.93,17.6,1.05,22.71c-5.88,5.11-15.88,3.23-22.34-4.2 c-6.46-7.43-6.93-17.6-1.05-22.71C1716.28,635,1726.28,636.88,1732.74,644.31z" class="st14"/><path d="M1805.57,728.1c6.46,7.43,6.93,17.6,1.05,22.71c-5.88,5.11-15.88,3.23-22.34-4.2 c-6.46-7.43-6.93-17.6-1.05-22.71C1789.11,718.79,1799.11,720.67,1805.57,728.1z" class="st14"/><path d="M1874.07,809.62c6.46,7.43,6.93,17.6,1.05,22.71c-5.88,5.11-15.88,3.23-22.34-4.2 c-6.46-7.43-6.93-17.6-1.05-22.71C1857.61,800.3,1867.62,802.19,1874.07,809.62z" class="st14"/><path d="M1950.02,890.7c6.46,7.43,6.93,17.6,1.05,22.71c-5.88,5.11-15.88,3.23-22.34-4.2 c-6.46-7.43-6.93-17.6-1.05-22.71C1933.55,881.39,1943.56,883.27,1950.02,890.7z" class="st14"/><path d="M2019.85,971.05c6.46,7.43,6.93,17.6,1.05,22.71c-5.88,5.11-15.88,3.23-22.34-4.2 c-6.46-7.43-6.93-17.6-1.05-22.71C2003.39,961.74,2013.4,963.62,2019.85,971.05z" class="st14"/><path d="M2089.69,1051.41c6.46,7.43,6.93,17.6,1.05,22.71c-5.88,5.11-15.88,3.23-22.34-4.2 c-6.46-7.43-6.93-17.6-1.05-22.71S2083.23,1043.97,2089.69,1051.41z" class="st14"/><path d="M2159.53,1131.76c6.46,7.43,6.93,17.6,1.05,22.71c-5.88,5.11-15.88,3.23-22.34-4.2 c-6.46-7.43-6.93-17.6-1.05-22.71C2143.07,1122.44,2153.07,1124.33,2159.53,1131.76z" class="st14"/><ellipse cx="2224.9" cy="1228.46" class="st14" rx="14.1" ry="17.83" transform="matrix(0.7548 -0.656 0.656 0.7548 -260.2292 1760.8278)"/><path d="M2306.92,1301.33c6.46,7.43,6.93,17.6,1.05,22.71s-15.88,3.23-22.34-4.2s-6.93-17.6-1.05-22.71 C2290.46,1292.02,2300.46,1293.9,2306.92,1301.33z" class="st14"/><path d="M1725.67,644.24l-73.18,63.61c-1.4,1.22-3.55,1.07-4.77-0.33l0,0c-1.22-1.4-1.07-3.55,0.33-4.77l73.19-63.61 c1.4-1.22,3.55-1.07,4.77,0.33l0,0C1727.23,640.87,1727.08,643.02,1725.67,644.24z" class="st15"/><path d="M1736.58,658.13l-73.18,63.61c-1.4,1.22-3.55,1.07-4.77-0.33l0,0c-1.22-1.4-1.07-3.55,0.33-4.77l73.18-63.61 c1.4-1.22,3.55-1.07,4.77,0.33l0,0C1738.14,654.76,1737.98,656.91,1736.58,658.13z" class="st15"/><path d="M1798.02,727.8l-73.19,63.61c-1.4,1.22-3.55,1.07-4.77-0.33l0,0c-1.22-1.4-1.07-3.55,0.33-4.77l73.18-63.61 c1.4-1.22,3.55-1.07,4.77,0.33l0,0C1799.57,724.44,1799.42,726.58,1798.02,727.8z" class="st15"/><path d="M1809.24,740.7l-73.18,63.61c-1.4,1.22-3.55,1.07-4.77-0.33l0,0c-1.22-1.4-1.07-3.55,0.33-4.77l73.18-63.61 c1.4-1.22,3.55-1.07,4.77,0.33l0,0C1810.79,737.33,1810.64,739.48,1809.24,740.7z" class="st15"/><path d="M1866.52,809.44l-73.19,63.61c-1.4,1.22-3.55,1.07-4.77-0.33l0,0c-1.22-1.4-1.07-3.55,0.33-4.77l73.18-63.61 c1.4-1.22,3.55-1.07,4.77,0.33l0,0C1868.07,806.07,1867.92,808.22,1866.52,809.44z" class="st15"/><path d="M1877.7,822.3l-73.18,63.61c-1.4,1.22-3.55,1.07-4.77-0.33l0,0c-1.22-1.4-1.07-3.55,0.33-4.77l73.18-63.61 c1.4-1.22,3.55-1.07,4.77,0.33h0C1879.25,818.94,1879.1,821.08,1877.7,822.3z" class="st15"/><path d="M1942.41,890.46l-73.18,63.61c-1.4,1.22-3.55,1.07-4.77-0.33l0,0c-1.22-1.4-1.07-3.55,0.33-4.77l73.19-63.61 c1.4-1.22,3.55-1.07,4.77,0.33l0,0C1943.96,887.09,1943.81,889.24,1942.41,890.46z" class="st15"/><path d="M1953.59,903.32l-73.19,63.61c-1.4,1.22-3.55,1.07-4.77-0.33v0c-1.22-1.4-1.07-3.55,0.33-4.77l73.18-63.61 c1.4-1.22,3.55-1.07,4.77,0.33l0,0C1955.14,899.96,1954.99,902.1,1953.59,903.32z" class="st15"/><path d="M2012.28,970.79l-73.19,63.61c-1.4,1.22-3.55,1.07-4.77-0.33l0,0c-1.22-1.4-1.07-3.55,0.33-4.77l73.18-63.61 c1.4-1.22,3.55-1.07,4.77,0.33l0,0C2013.84,967.43,2013.69,969.57,2012.28,970.79z" class="st15"/><path d="M2023.46,983.66l-73.18,63.61c-1.4,1.22-3.55,1.07-4.77-0.33l0,0c-1.22-1.4-1.07-3.55,0.33-4.77l73.18-63.61 c1.4-1.22,3.55-1.07,4.77,0.33l0,0C2025.02,980.29,2024.87,982.44,2023.46,983.66z" class="st15"/><path d="M2082.23,1051.18l-73.18,63.61c-1.4,1.22-3.55,1.07-4.77-0.33l0,0c-1.22-1.4-1.07-3.55,0.33-4.77l73.18-63.61 c1.4-1.22,3.55-1.07,4.77,0.33l0,0C2083.78,1047.82,2083.63,1049.96,2082.23,1051.18z" class="st15"/><path d="M2093.41,1064.04l-73.18,63.61c-1.4,1.22-3.55,1.07-4.77-0.33l0,0c-1.22-1.4-1.07-3.55,0.33-4.77l73.18-63.61 c1.4-1.22,3.55-1.07,4.77,0.33l0,0C2094.96,1060.68,2094.81,1062.83,2093.41,1064.04z" class="st15"/><path d="M2151.99,1131.51l-73.18,63.61c-1.4,1.22-3.55,1.07-4.77-0.33l0,0c-1.22-1.4-1.07-3.55,0.33-4.77l73.19-63.61 c1.4-1.22,3.55-1.07,4.77,0.33l0,0C2153.55,1128.14,2153.4,1130.29,2151.99,1131.51z" class="st15"/><path d="M2163.17,1144.37l-73.19,63.61c-1.4,1.22-3.55,1.07-4.77-0.33l0,0c-1.22-1.4-1.07-3.55,0.33-4.77l73.18-63.61 c1.4-1.22,3.55-1.07,4.77,0.33l0,0C2164.73,1141,2164.58,1143.15,2163.17,1144.37z" class="st15"/><path d="M2227.99,1218.95l-73.19,63.61c-1.4,1.22-3.55,1.07-4.77-0.33l0,0c-1.22-1.4-1.07-3.55,0.33-4.77l73.18-63.61 c1.4-1.22,3.55-1.07,4.77,0.33l0,0C2229.55,1215.58,2229.4,1217.73,2227.99,1218.95z" class="st15"/><path d="M2239.17,1231.81l-73.18,63.61c-1.4,1.22-3.55,1.07-4.77-0.33l0,0c-1.22-1.4-1.07-3.55,0.33-4.77l73.19-63.61 c1.4-1.22,3.55-1.07,4.77,0.33l0,0C2240.73,1228.44,2240.58,1230.59,2239.17,1231.81z" class="st15"/><path d="M2299.27,1301.14l-73.18,63.61c-1.4,1.22-3.55,1.07-4.77-0.33l0,0c-1.22-1.4-1.07-3.55,0.33-4.77l73.18-63.61 c1.4-1.22,3.55-1.07,4.77,0.33l0,0C2300.82,1297.78,2300.67,1299.93,2299.27,1301.14z" class="st15"/><path d="M2310.45,1314.01l-73.19,63.61c-1.4,1.22-3.55,1.07-4.77-0.33l0,0c-1.22-1.4-1.07-3.55,0.33-4.77l73.18-63.61 c1.4-1.22,3.55-1.07,4.77,0.33l0,0C2312,1310.64,2311.85,1312.79,2310.45,1314.01z" class="st15"/><rect width="699.82" height="2.35" x="1689.76" y="553.2" class="st14" transform="matrix(0.7547 -0.656 0.656 0.7547 136.5555 1474.0126)"/><rect width="699.81" height="2.35" x="1652.75" y="510.62" class="st14" transform="matrix(0.7548 -0.656 0.656 0.7548 155.4063 1439.2784)"/><rect width="699.81" height="2.35" x="1620.37" y="473.36" class="st14" transform="matrix(0.7548 -0.656 0.656 0.7548 171.9086 1408.9032)"/><rect width="699.81" height="2.35" x="1725.23" y="594" class="st14" transform="matrix(0.7548 -0.656 0.656 0.7548 118.4779 1507.2743)"/><rect width="699.81" height="2.35" x="1760.7" y="634.81" class="st14" transform="matrix(0.7548 -0.656 0.656 0.7548 100.4086 1540.5481)"/><rect width="699.81" height="2.35" x="1796.16" y="675.62" class="st14" transform="matrix(0.7548 -0.656 0.656 0.7548 82.3362 1573.8236)"/><rect width="700.5" height="2.35" x="1831.55" y="716.2" class="st14" transform="matrix(0.7548 -0.656 0.656 0.7548 64.4818 1607.2217)"/><rect width="700.5" height="2.35" x="1867.01" y="757" class="st14" transform="matrix(0.7548 -0.656 0.656 0.7548 46.4109 1640.4965)"/><rect width="700.5" height="2.35" x="1900.94" y="796.03" class="st14" transform="matrix(0.7548 -0.656 0.656 0.7548 29.1257 1672.3247)"/><rect width="700.5" height="2.35" x="1937.95" y="838.61" class="st14" transform="matrix(0.7548 -0.656 0.656 0.7548 10.2692 1707.0468)"/><rect width="700.5" height="2.35" x="1971.88" y="877.65" class="st14" transform="matrix(0.7548 -0.656 0.656 0.7548 -7.0158 1738.8751)"/><rect width="700.5" height="2.35" x="2005.8" y="916.68" class="st14" transform="matrix(0.7548 -0.656 0.656 0.7548 -24.3011 1770.7032)"/><rect width="700.5" height="2.35" x="2042.81" y="959.26" class="st14" transform="matrix(0.7548 -0.656 0.656 0.7548 -43.1577 1805.4249)"/><rect width="700.5" height="2.35" x="2081.36" y="1003.61" class="st14" transform="matrix(0.7548 -0.656 0.656 0.7548 -62.7999 1841.5934)"/><rect width="700.5" height="2.35" x="2118.37" y="1046.19" class="st14" transform="matrix(0.7548 -0.656 0.656 0.7548 -81.6563 1876.3153)"/><rect width="700.5" height="2.35" x="2153.84" y="1087" class="st14" transform="matrix(0.7548 -0.656 0.656 0.7548 -99.7272 1909.5901)"/><rect width="700.5" height="2.35" x="2190.85" y="1129.58" class="st14" transform="matrix(0.7548 -0.656 0.656 0.7548 -118.5837 1944.312)"/><path d="M2841.32,946.12l-526.78,457.88l-1.55-1.77l527.17-458.21C2840.56,944.7,2840.95,945.41,2841.32,946.12z" class="st14"/></g><g id="Layer_4"><rect width="642.11" height="764.66" x="280.17" y="239.3" class="st16" transform="matrix(-0.738 -0.6748 0.6748 -0.738 625.47 1486.1016)"/><rect width="642.11" height="764.66" x="3604.59" y="1218.32" class="st16" transform="matrix(0.3917 0.9201 -0.9201 0.3917 3860.6611 -2638.283)"/><path d="M964.72,228.51l-76.88,437.86c-0.47,2.69,2.67,5.49,7.01,6.25l41.94,7.36c4.34,0.76,8.25-0.79,8.72-3.49 l76.88-437.86c0.07-0.37,0.06-0.75-0.02-1.13l-57.25-10.05C964.92,227.79,964.79,228.14,964.72,228.51z" class="st17"/><path d="M919.76,676.99l17.04,2.99c4.34,0.76,8.25-0.79,8.72-3.49l76.88-437.86c0.07-0.37,0.06-0.75-0.02-1.13 l-17.04-2.99c0.06,0.29,0.08,0.57,0.05,0.85c0,0.09-0.02,0.19-0.04,0.28l-76.88,437.86C928,676.2,924.09,677.76,919.76,676.99z" class="st18"/><path d="M985.04,232.08l-76.88,437.86c-0.47,2.69,0.39,5.09,1.91,5.35l14.78,2.6c1.52,0.27,3.15-1.69,3.62-4.38 l76.88-437.86c0.02-0.09,0.03-0.19,0.04-0.28c0.05-0.28,0.07-0.56,0.09-0.83l-20.18-3.54C985.19,231.34,985.1,231.71,985.04,232.08 z" class="st19"/><path d="M1022.39,237.51c0,0-8.76-99.04-12.02-99.73c-3.26-0.69-45.27,89.67-45.27,89.67L1022.39,237.51z" class="st3"/><path d="M1015.88,172.06c0,0-3.61-35-5.34-35.03C1008.39,137,993.53,168,993.53,168L1015.88,172.06z" class="st20"/><path d="M2735.46,1747.23c-28.93-14.14-64.18-2.04-78.32,26.89l-177.08,362.29c-14.14,28.93-2.04,64.18,26.89,78.32 l502.75,245.74c28.93,14.14,64.18,2.04,78.32-26.89l177.08-362.29c14.14-28.93,2.04-64.18-26.89-78.32L2735.46,1747.23z" class="st21"/><path d="M2685.07,2301.8l-210.74-150.28c0.42-5.53,5.8-15.36,8.5-20.8l84.86-169.98c0,0,157.73-216.91,158.34-217.66 l201.65,103.69l315.34,210.85l-4.11,10.16l-500.88,259.45L2685.07,2301.8z" class="st22"/><path d="M2823.27,1740.97c-25.78-19.3-62.66-14.01-81.97,11.77l-241.71,322.78c-19.3,25.78-14,62.66,11.77,81.97 l447.93,335.42c25.78,19.3,62.66,14.01,81.97-11.77l241.71-322.78c19.3-25.78,14.01-62.66-11.77-81.97L2823.27,1740.97z" class="st23"/><path d="M3080.36,2416.19l-107.81-69.83c0,0-12.61-11.97-24.16,2.07c-11.54,14.03-50.27,99.52-50.27,99.52 L3080.36,2416.19z" class="st24"/><path d="M3086.16,2420.4l-95.67-69.45c0,0-12.62-11.97-24.16,2.07c-11.55,14.03-68.67,94.59-68.67,94.59 L3086.16,2420.4z" class="st25"/><path d="M2813.12,2261.22c-3.58-2.7-4.29-7.79-1.6-11.36l185.58-248.09c2.7-3.58,7.78-4.29,11.36-1.6l0,0 c3.58,2.7,4.29,7.78,1.6,11.36l-185.58,248.09C2821.78,2263.19,2816.7,2263.91,2813.12,2261.22L2813.12,2261.22z" class="st22"/><path d="M2840.78,2168.99c-3.58-2.7-4.29-7.78-1.6-11.36l131.75-174.89c2.7-3.58,7.78-4.3,11.36-1.6l0,0 c3.58,2.69,4.29,7.78,1.6,11.36l-131.75,174.89C2849.45,2170.97,2844.36,2171.69,2840.78,2168.99L2840.78,2168.99z" class="st22"/><path d="M2757.91,2221.09c-3.58-2.7-4.29-7.79-1.6-11.36l185.58-248.09c2.7-3.58,7.78-4.29,11.36-1.6l0,0 c3.58,2.7,4.29,7.78,1.6,11.36l-185.58,248.09C2766.58,2223.07,2761.49,2223.79,2757.91,2221.09L2757.91,2221.09z" class="st22"/><path d="M2798.74,2101.56c-3.58-2.7-4.29-7.78-1.59-11.37l113.79-151.06c2.7-3.58,7.78-4.3,11.36-1.6l0,0 c3.58,2.7,4.29,7.78,1.6,11.36l-113.8,151.06C2807.4,2103.54,2802.32,2104.26,2798.74,2101.56L2798.74,2101.56z" class="st22"/><path d="M2748.17,2109.05c-3.58-2.7-4.29-7.79-1.6-11.37l135.34-179.65c2.7-3.58,7.78-4.3,11.36-1.6l0,0 c3.58,2.69,4.29,7.78,1.59,11.36l-135.34,179.65C2756.83,2111.03,2751.74,2111.75,2748.17,2109.05L2748.17,2109.05z" class="st22"/><path d="M2666.58,2154.71c-3.58-2.7-4.29-7.78-1.6-11.36l185.58-248.09c2.69-3.58,7.78-4.3,11.36-1.6l0,0 c3.58,2.69,4.29,7.78,1.6,11.36l-185.58,248.09C2675.24,2156.68,2670.15,2157.4,2666.58,2154.71L2666.58,2154.71z" class="st22"/><path d="M2638.15,2134.05c-3.58-2.69-4.29-7.78-1.59-11.36l185.58-248.09c2.7-3.58,7.78-4.29,11.36-1.6l0,0 c3.58,2.69,4.29,7.78,1.6,11.36l-185.58,248.09C2646.82,2136.02,2641.73,2136.74,2638.15,2134.05L2638.15,2134.05z" class="st22"/><path d="M3381.27,2250.72l-90.65,435.22c-0.56,2.68,2.5,5.57,6.81,6.47l41.68,8.68c4.31,0.9,8.27-0.53,8.82-3.21 l90.65-435.22c0.08-0.37,0.09-0.75,0.02-1.13l-56.9-11.85C3381.49,2250,3381.35,2250.35,3381.27,2250.72z" class="st20"/><path d="M3322.18,2697.56l16.93,3.53c4.31,0.9,8.27-0.53,8.82-3.21l90.65-435.22c0.08-0.37,0.09-0.75,0.02-1.13 l-16.94-3.53c0.05,0.29,0.06,0.58,0.03,0.86c-0.01,0.09-0.03,0.19-0.04,0.28L3331,2694.35 C3330.44,2697.03,3326.49,2698.46,3322.18,2697.56z" class="st15"/><path d="M3401.46,2254.93l-90.65,435.22c-0.56,2.68,0.23,5.1,1.74,5.41l14.69,3.06c1.51,0.31,3.2-1.59,3.76-4.27 l90.65-435.22c0.02-0.09,0.04-0.19,0.04-0.28c0.06-0.27,0.09-0.55,0.12-0.83l-20.06-4.18 C3401.64,2254.2,3401.54,2254.56,3401.46,2254.93z" class="st26"/><path d="M3438.63,2261.54c0,0-5.63-99.27-8.87-100.06c-3.23-0.79-48.08,88.2-48.08,88.2L3438.63,2261.54z" class="st13"/><path d="M3434.19,2195.91c0,0-2.5-35.1-4.23-35.18c-2.15-0.1-17.98,30.41-17.98,30.41L3434.19,2195.91z" class="st23"/><path d="M3125.73,2194.23l256.2,363.31c1.58,2.24,5.77,1.98,9.37-0.56l34.8-24.54c3.6-2.54,5.25-6.41,3.68-8.64 l-256.2-363.31c-0.22-0.31-0.49-0.57-0.81-0.79l-47.5,33.49C3125.35,2193.58,3125.51,2193.92,3125.73,2194.23z" class="st27"/><path d="M3411.96,2542.41l14.14-9.97c3.6-2.54,5.25-6.41,3.68-8.64l-256.2-363.31c-0.22-0.31-0.49-0.57-0.81-0.79 l-14.14,9.97c0.24,0.16,0.46,0.35,0.64,0.56c0.06,0.07,0.12,0.15,0.17,0.22l256.2,363.31 C3417.21,2536,3415.56,2539.87,3411.96,2542.41z" class="st28"/><path d="M3142.58,2182.34l256.2,363.31c1.58,2.23,3.88,3.31,5.14,2.42l12.27-8.65c1.26-0.89,1.02-3.42-0.56-5.66 l-256.2-363.31c-0.05-0.07-0.11-0.16-0.17-0.22c-0.16-0.23-0.34-0.44-0.52-0.65l-16.75,11.81 C3142.17,2181.71,3142.36,2182.03,3142.58,2182.34z" class="st29"/><path d="M3172.78,2159.69c0,0-76.39-63.64-79.18-61.82c-2.78,1.82,31.64,95.34,31.64,95.34L3172.78,2159.69z" class="st30"/><path d="M3121.79,2118.14c0,0-27.36-22.13-28.6-20.92c-1.55,1.5,9.95,33.9,9.95,33.9L3121.79,2118.14z" class="st29"/></g><g id="Layer_2"><path d="M4141.18,1030.5c-7.81,24.75-296.89,299.98-572.36,534.88c-285.57,243.52-1003.05,632.86-1003.05,632.86 c-495.26,198.1-1297.68,292.71-1297.68,292.71l-508.75-10.84l9.83-862.47l1319.68,30.83c214.86-139.86,770.9-285.13,922.25-344.44 c24.74-9.69,38.73-15.07,38.73-15.07c74.84-64.14,171.09-67.92,223.82-97.3c71.69-39.94,141.42-68.42,202.09-123.66 c57.75-52.59,145.51-81.95,208.24-121c92.75-57.75,156.06-115.92,192.47-132.58c12.08-5.53,18.85-8.42,18.85-8.42 C4151.8,813.07,4141.18,1030.5,4141.18,1030.5z" class="st26"/><path d="M3876.47,814.42C3618.97,1073.03,2695,1868.33,2695,1868.33L2684.82,1525 c24.74-9.69,383.33-251.04,383.33-251.04C3165,1223,3310.31,1143.1,3364,1112c104.06-60.27,276.91-158.15,351-202 S3876.47,814.42,3876.47,814.42z" class="st14"/><path d="M4505.82,2073.2l-285.15-49.61c0,0-713.46-172.89-991.48-204.11c0,0-673.52-84.66-907-104.83 c0,0-1294.4-59.4-1483.07-73.55l-110.64-535.74l503.48-251.28c0,0,561.06,96.58,1135.77,207.59 c456.91,88.26,922.45,185.65,1121.54,250.88l519.81,172.72c56.03,18.62,298.95,107.8,361.55,145.72 c40.32,24.43,88.96,20.16,140.96,96.04c0,0,102.93,58.36,168.96,166.85c0,0,55.6-13.87,57.96,23.86 C4740.86,1955.47,4640.25,2073.2,4505.82,2073.2z" class="st15"/><path d="M4803.25,508.01c0,216.61-223.12,309.48-338.16,342.96c-50.74,14.77-99.28,36.22-144.17,64.09l-142.05,88.21 c0,0-10.61-206.95-238.78-228.17l393.34-328.98l86.61-72.44c63.3-55.49,167.34-107.99,247.37-81.84 c37.59,12.28,73.85,34.51,99.43,73.29v0.01C4789.08,398.84,4803.25,445.02,4803.25,508.01z" class="st14"/><path d="M547.95,2535.39c0,0,268.44,51.57,280.33-10.53c133.72-697.91,14.39-1712.64,14.39-1712.64l-349.1,26.77 L547.95,2535.39z" class="darkYellow"/><path d="M4511.59,1727.02c-615.85-327.33-2167.09-579.51-2167.09-579.51l23.23-85.85 c456.91,88.26,922.45,185.65,1121.54,250.88l519.81,172.72c56.03,18.62,293.66,96.36,358.95,129.42 C4426.57,1644.32,4497.7,1697.67,4511.59,1727.02z" class="st20"/><path d="M969.64,2369.69V975.13c0-40.8,33.07-73.87,73.87-73.87h929.97c40.8,0,73.87,33.07,73.87,73.87v1394.56 c0,40.8-33.07,73.87-73.87,73.87h-929.97C1002.71,2443.56,969.64,2410.49,969.64,2369.69z" class="st32"/><path d="M1427.53,2316.25V1021.87c0-15.42,12.5-27.92,27.92-27.92h496.98c15.42,0,27.92,12.5,27.92,27.92v1294.38 c0,15.42-12.5,27.92-27.92,27.92h-496.98C1440.03,2344.17,1427.53,2331.67,1427.53,2316.25z" class="st33"/><path d="M1015.43,1906.2V1441.6c0-10.59,8.58-19.17,19.17-19.17h326.85c10.59,0,19.17,8.58,19.17,19.17v464.59 c0,10.59-8.58,19.17-19.17,19.17H1034.6C1024.01,1925.37,1015.43,1916.78,1015.43,1906.2z" class="st8"/><g><path d="M1901.61,1089.16v-55.65c0-7.76,6.29-14.05,14.05-14.05h23.08c7.76,0,14.05,6.29,14.05,14.05v55.65 c0,7.76-6.29,14.05-14.05,14.05h-23.08C1907.9,1103.21,1901.61,1096.92,1901.61,1089.16z" class="st0"/><path d="M1901.61,1183.02v-55.65c0-7.76,6.29-14.05,14.05-14.05h23.08c7.76,0,14.05,6.29,14.05,14.05v55.65 c0,7.76-6.29,14.05-14.05,14.05h-23.08C1907.9,1197.07,1901.61,1190.78,1901.61,1183.02z" class="st0"/><path d="M1901.61,1276.88v-55.65c0-7.76,6.29-14.05,14.05-14.05h23.08c7.76,0,14.05,6.29,14.05,14.05v55.65 c0,7.76-6.29,14.05-14.05,14.05h-23.08C1907.9,1290.93,1901.61,1284.64,1901.61,1276.88z" class="st0"/><path d="M1901.61,1370.73v-55.65c0-7.76,6.29-14.05,14.05-14.05h23.08c7.76,0,14.05,6.29,14.05,14.05v55.65 c0,7.76-6.29,14.05-14.05,14.05h-23.08C1907.9,1384.79,1901.61,1378.5,1901.61,1370.73z" class="st0"/><path d="M1901.61,1464.59v-55.65c0-7.76,6.29-14.05,14.05-14.05h23.08c7.76,0,14.05,6.29,14.05,14.05v55.65 c0,7.76-6.29,14.05-14.05,14.05h-23.08C1907.9,1478.65,1901.61,1472.35,1901.61,1464.59z" class="st0"/><path d="M1901.61,1558.45v-55.65c0-7.76,6.29-14.05,14.05-14.05h23.08c7.76,0,14.05,6.29,14.05,14.05v55.65 c0,7.76-6.29,14.05-14.05,14.05h-23.08C1907.9,1572.5,1901.61,1566.21,1901.61,1558.45z" class="st0"/><path d="M1901.61,1652.31v-55.65c0-7.76,6.29-14.05,14.05-14.05h23.08c7.76,0,14.05,6.29,14.05,14.05v55.65 c0,7.76-6.29,14.05-14.05,14.05h-23.08C1907.9,1666.36,1901.61,1660.07,1901.61,1652.31z" class="st0"/><path d="M1901.61,1746.17v-55.65c0-7.76,6.29-14.05,14.05-14.05h23.08c7.76,0,14.05,6.29,14.05,14.05v55.65 c0,7.76-6.29,14.05-14.05,14.05h-23.08C1907.9,1760.22,1901.61,1753.93,1901.61,1746.17z" class="st0"/><path d="M1901.61,1840.02v-55.65c0-7.76,6.29-14.05,14.05-14.05h23.08c7.76,0,14.05,6.29,14.05,14.05v55.65 c0,7.76-6.29,14.05-14.05,14.05h-23.08C1907.9,1854.08,1901.61,1847.79,1901.61,1840.02z" class="st0"/><path d="M1901.61,1933.88v-55.65c0-7.76,6.29-14.05,14.05-14.05h23.08c7.76,0,14.05,6.29,14.05,14.05v55.65 c0,7.76-6.29,14.05-14.05,14.05h-23.08C1907.9,1947.94,1901.61,1941.64,1901.61,1933.88z" class="st0"/><path d="M1901.61,2027.74v-55.65c0-7.76,6.29-14.05,14.05-14.05h23.08c7.76,0,14.05,6.29,14.05,14.05v55.65 c0,7.76-6.29,14.05-14.05,14.05h-23.08C1907.9,2041.79,1901.61,2035.5,1901.61,2027.74z" class="st0"/><path d="M1901.61,2121.6v-55.65c0-7.76,6.29-14.05,14.05-14.05h23.08c7.76,0,14.05,6.29,14.05,14.05v55.65 c0,7.76-6.29,14.05-14.05,14.05h-23.08C1907.9,2135.65,1901.61,2129.36,1901.61,2121.6z" class="st0"/><path d="M1901.61,2215.46v-55.65c0-7.76,6.29-14.05,14.05-14.05h23.08c7.76,0,14.05,6.29,14.05,14.05v55.65 c0,7.76-6.29,14.05-14.05,14.05h-23.08C1907.9,2229.51,1901.61,2223.22,1901.61,2215.46z" class="st0"/><path d="M1901.61,2309.32v-55.65c0-7.76,6.29-14.05,14.05-14.05h23.08c7.76,0,14.05,6.29,14.05,14.05v55.65 c0,7.76-6.29,14.05-14.05,14.05h-23.08C1907.9,2323.37,1901.61,2317.08,1901.61,2309.32z" class="st0"/><path d="M1817.99,1095.23v-69.66c0-1.73,1.41-3.14,3.14-3.14h69.66c1.73,0,3.14,1.41,3.14,3.14v69.66 c0,1.73-1.41,3.14-3.14,3.14h-69.66C1819.4,1098.37,1817.99,1096.97,1817.99,1095.23z" class="st0"/><path d="M1730.05,1232.97v-69.66c0-1.73,1.41-3.14,3.14-3.14h69.66c1.73,0,3.14,1.41,3.14,3.14v69.66 c0,1.73-1.41,3.14-3.14,3.14h-69.66C1731.45,1236.11,1730.05,1234.71,1730.05,1232.97z" class="st0"/><path d="M1642.1,1253.26v-69.66c0-1.73,1.41-3.14,3.14-3.14h69.66c1.73,0,3.14,1.41,3.14,3.14v69.66 c0,1.73-1.41,3.14-3.14,3.14h-69.66C1643.51,1256.4,1642.1,1255,1642.1,1253.26z" class="st0"/><path d="M1554.16,1300.54v-69.66c0-1.73,1.41-3.14,3.14-3.14h69.66c1.73,0,3.14,1.41,3.14,3.14v69.66 c0,1.73-1.41,3.14-3.14,3.14h-69.66C1555.56,1303.68,1554.16,1302.27,1554.16,1300.54z" class="st0"/><path d="M1456.56,1095.04v-69.27c0-1.84,1.49-3.34,3.34-3.34h78.95c1.84,0,3.34,1.49,3.34,3.34v69.27 c0,1.84-1.49,3.34-3.34,3.34h-78.95C1458.06,1098.37,1456.56,1096.88,1456.56,1095.04z" class="st0"/><path d="M1456.56,1187.55v-69.27c0-1.84,1.49-3.34,3.34-3.34h78.95c1.84,0,3.34,1.49,3.34,3.34v69.27 c0,1.84-1.49,3.34-3.34,3.34h-78.95C1458.06,1190.88,1456.56,1189.39,1456.56,1187.55z" class="st0"/><path d="M1456.56,1277.26v-69.27c0-1.84,1.49-3.34,3.34-3.34h78.95c1.84,0,3.34,1.49,3.34,3.34v69.27 c0,1.84-1.49,3.34-3.34,3.34h-78.95C1458.06,1280.6,1456.56,1279.11,1456.56,1277.26z" class="st0"/><path d="M1456.56,1390.33v-91.41c0-2.1,1.7-3.81,3.81-3.81h78c2.1,0,3.81,1.71,3.81,3.81v91.41 c0,2.1-1.71,3.81-3.81,3.81h-78C1458.27,1394.14,1456.56,1392.44,1456.56,1390.33z" class="st0"/><path d="M1456.56,1952.64v-91.41c0-2.1,1.7-3.81,3.81-3.81h78c2.1,0,3.81,1.71,3.81,3.81v91.41 c0,2.1-1.71,3.81-3.81,3.81h-78C1458.27,1956.45,1456.56,1954.75,1456.56,1952.64z" class="st0"/><path d="M1456.56,2045.18v-68.29c0-1.83,1.48-3.31,3.31-3.31h79c1.83,0,3.31,1.48,3.31,3.31v68.29 c0,1.83-1.48,3.31-3.31,3.31h-79C1458.05,2048.5,1456.56,2047.01,1456.56,2045.18z" class="st0"/><path d="M1456.56,1838.44v-421.77c0-4.42,3.59-8.01,8.01-8.01h69.61c4.42,0,8.01,3.59,8.01,8.01v421.77 c0,4.42-3.59,8.01-8.01,8.01h-69.61C1460.15,1846.45,1456.56,1842.86,1456.56,1838.44z" class="st0"/><path d="M1554.16,1391v-69.66c0-1.73,1.41-3.14,3.14-3.14h69.66c1.73,0,3.14,1.41,3.14,3.14V1391 c0,1.73-1.41,3.14-3.14,3.14h-69.66C1555.56,1394.14,1554.16,1392.73,1554.16,1391z" class="st0"/><path d="M1554.16,1481.46v-69.66c0-1.73,1.41-3.14,3.14-3.14h69.66c1.73,0,3.14,1.41,3.14,3.14v69.66 c0,1.73-1.41,3.14-3.14,3.14h-69.66C1555.56,1484.6,1554.16,1483.2,1554.16,1481.46z" class="st0"/><path d="M1554.16,1571.92v-69.66c0-1.73,1.41-3.14,3.14-3.14h69.66c1.73,0,3.14,1.41,3.14,3.14v69.66 c0,1.73-1.41,3.14-3.14,3.14h-69.66C1555.56,1575.06,1554.16,1573.66,1554.16,1571.92z" class="st0"/><path d="M1554.16,1662.38v-69.66c0-1.73,1.41-3.14,3.14-3.14h69.66c1.73,0,3.14,1.41,3.14,3.14v69.66 c0,1.73-1.41,3.14-3.14,3.14h-69.66C1555.56,1665.52,1554.16,1664.12,1554.16,1662.38z" class="st0"/><path d="M1554.16,1752.84v-69.66c0-1.73,1.41-3.14,3.14-3.14h69.66c1.73,0,3.14,1.41,3.14,3.14v69.66 c0,1.73-1.41,3.14-3.14,3.14h-69.66C1555.56,1755.99,1554.16,1754.58,1554.16,1752.84z" class="st0"/><path d="M1554.16,1843.31v-69.66c0-1.73,1.41-3.14,3.14-3.14h69.66c1.73,0,3.14,1.41,3.14,3.14v69.66 c0,1.73-1.41,3.14-3.14,3.14h-69.66C1555.56,1846.45,1554.16,1845.04,1554.16,1843.31z" class="st0"/><path d="M1554.16,1933.77v-69.66c0-1.73,1.41-3.14,3.14-3.14h69.66c1.73,0,3.14,1.41,3.14,3.14v69.66 c0,1.73-1.41,3.14-3.14,3.14h-69.66C1555.56,1936.91,1554.16,1935.5,1554.16,1933.77z" class="st0"/><path d="M1554.16,2024.23v-69.66c0-1.73,1.41-3.14,3.14-3.14h69.66c1.73,0,3.14,1.41,3.14,3.14v69.66 c0,1.73-1.41,3.14-3.14,3.14h-69.66C1555.56,2027.37,1554.16,2025.96,1554.16,2024.23z" class="st0"/><path d="M1455.26,2126.86v-52.96c0-6.73,5.46-12.19,12.19-12.19h19.73c6.73,0,12.19,5.46,12.19,12.19v52.96 c0,6.73-5.46,12.19-12.19,12.19h-19.73C1460.72,2139.05,1455.26,2133.59,1455.26,2126.86z" class="st0"/><path d="M1455.26,2217.6v-52.96c0-6.73,5.46-12.19,12.19-12.19h19.73c6.73,0,12.19,5.46,12.19,12.19v52.96 c0,6.73-5.46,12.19-12.19,12.19h-19.73C1460.72,2229.79,1455.26,2224.33,1455.26,2217.6z" class="st0"/><path d="M1504.71,2217.6v-52.96c0-6.73,5.46-12.19,12.19-12.19h19.73c6.73,0,12.19,5.46,12.19,12.19v52.96 c0,6.73-5.46,12.19-12.19,12.19h-19.73C1510.17,2229.79,1504.71,2224.33,1504.71,2217.6z" class="st0"/><path d="M1455.26,2308.34v-52.96c0-6.73,5.46-12.19,12.19-12.19h19.73c6.73,0,12.19,5.46,12.19,12.19v52.96 c0,6.73-5.46,12.19-12.19,12.19h-19.73C1460.72,2320.53,1455.26,2315.07,1455.26,2308.34z" class="st0"/><path d="M1642.1,1344.56v-69.66c0-1.73,1.41-3.14,3.14-3.14h69.66c1.73,0,3.14,1.41,3.14,3.14v69.66 c0,1.73-1.41,3.14-3.14,3.14h-69.66C1643.51,1347.7,1642.1,1346.29,1642.1,1344.56z" class="st0"/><path d="M1642.1,1435.86v-69.66c0-1.73,1.41-3.14,3.14-3.14h69.66c1.73,0,3.14,1.41,3.14,3.14v69.66 c0,1.73-1.41,3.14-3.14,3.14h-69.66C1643.51,1439,1642.1,1437.59,1642.1,1435.86z" class="st0"/><path d="M1642.1,1527.16v-69.66c0-1.73,1.41-3.14,3.14-3.14h69.66c1.73,0,3.14,1.41,3.14,3.14v69.66 c0,1.73-1.41,3.14-3.14,3.14h-69.66C1643.51,1530.3,1642.1,1528.89,1642.1,1527.16z" class="st0"/><path d="M1642.1,1617.9v-69.66c0-1.73,1.41-3.14,3.14-3.14h69.66c1.73,0,3.14,1.41,3.14,3.14v69.66 c0,1.73-1.41,3.14-3.14,3.14h-69.66C1643.51,1621.04,1642.1,1619.63,1642.1,1617.9z" class="st0"/><path d="M1642.1,1709.2v-69.66c0-1.73,1.41-3.14,3.14-3.14h69.66c1.73,0,3.14,1.41,3.14,3.14v69.66 c0,1.73-1.41,3.14-3.14,3.14h-69.66C1643.51,1712.34,1642.1,1710.93,1642.1,1709.2z" class="st0"/><path d="M1642.1,1796.59v-69.66c0-1.73,1.41-3.14,3.14-3.14h69.66c1.73,0,3.14,1.41,3.14,3.14v69.66 c0,1.73-1.41,3.14-3.14,3.14h-69.66C1643.51,1799.73,1642.1,1798.32,1642.1,1796.59z" class="st0"/><path d="M1642.1,1887.05v-69.66c0-1.73,1.41-3.14,3.14-3.14h69.66c1.73,0,3.14,1.41,3.14,3.14v69.66 c0,1.73-1.41,3.14-3.14,3.14h-69.66C1643.51,1890.19,1642.1,1888.78,1642.1,1887.05z" class="st0"/><path d="M1642.1,1977.51v-69.66c0-1.73,1.41-3.14,3.14-3.14h69.66c1.73,0,3.14,1.41,3.14,3.14v69.66 c0,1.73-1.41,3.14-3.14,3.14h-69.66C1643.51,1980.65,1642.1,1979.24,1642.1,1977.51z" class="st0"/><path d="M1642.1,2067.41v-69.66c0-1.73,1.41-3.14,3.14-3.14h69.66c1.73,0,3.14,1.41,3.14,3.14v69.66 c0,1.73-1.41,3.14-3.14,3.14h-69.66C1643.51,2070.55,1642.1,2069.15,1642.1,2067.41z" class="st0"/><path d="M1642.1,2157.31v-69.66c0-1.73,1.41-3.14,3.14-3.14h69.66c1.73,0,3.14,1.41,3.14,3.14v69.66 c0,1.73-1.41,3.14-3.14,3.14h-69.66C1643.51,2160.45,1642.1,2159.05,1642.1,2157.31z" class="st0"/><path d="M1554.16,2113.8v-69.66c0-1.73,1.41-3.14,3.14-3.14h69.66c1.73,0,3.14,1.41,3.14,3.14v69.66 c0,1.73-1.41,3.14-3.14,3.14h-69.66C1555.56,2116.95,1554.16,2115.54,1554.16,2113.8z" class="st0"/><path d="M1642.1,2316.59v-134.51c0-2.38,1.93-4.31,4.31-4.31h67.32c2.38,0,4.31,1.93,4.31,4.31v134.51 c0,2.38-1.93,4.31-4.31,4.31h-67.32C1644.03,2320.9,1642.1,2318.97,1642.1,2316.59z" class="st0"/><path d="M1554.16,2315.93v-180.38c0-2.75,2.23-4.97,4.97-4.97h66c2.75,0,4.97,2.23,4.97,4.97v180.38 c0,2.75-2.23,4.97-4.97,4.97h-66C1556.38,2320.9,1554.16,2318.68,1554.16,2315.93z" class="st0"/><path d="M1642.1,1162.72v-135.96c0-2.39,1.94-4.33,4.33-4.33h67.27c2.39,0,4.33,1.94,4.33,4.33v135.96 c0,2.39-1.94,4.33-4.33,4.33h-67.27C1644.04,1167.06,1642.1,1165.12,1642.1,1162.72z" class="st0"/><path d="M1554.16,1208.96v-183.01c0-2.77,2.24-5.01,5.01-5.01h65.93c2.77,0,5.01,2.24,5.01,5.01v183.01 c0,2.77-2.24,5.01-5.01,5.01h-65.93C1556.4,1213.96,1554.16,1211.72,1554.16,1208.96z" class="st0"/><path d="M1730.05,1323.81v-69.66c0-1.73,1.41-3.14,3.14-3.14h69.66c1.73,0,3.14,1.41,3.14,3.14v69.66 c0,1.73-1.41,3.14-3.14,3.14h-69.66C1731.45,1326.95,1730.05,1325.54,1730.05,1323.81z" class="st0"/><path d="M1730.05,1414.08v-69.66c0-1.73,1.41-3.14,3.14-3.14h69.66c1.73,0,3.14,1.41,3.14,3.14v69.66 c0,1.73-1.41,3.14-3.14,3.14h-69.66C1731.45,1417.22,1730.05,1415.81,1730.05,1414.08z" class="st0"/><path d="M1730.05,1504.91v-69.66c0-1.73,1.41-3.14,3.14-3.14h69.66c1.73,0,3.14,1.41,3.14,3.14v69.66 c0,1.73-1.41,3.14-3.14,3.14h-69.66C1731.45,1508.05,1730.05,1506.65,1730.05,1504.91z" class="st0"/><path d="M1730.05,1595.75v-69.66c0-1.73,1.41-3.14,3.14-3.14h69.66c1.73,0,3.14,1.41,3.14,3.14v69.66 c0,1.73-1.41,3.14-3.14,3.14h-69.66C1731.45,1598.89,1730.05,1597.48,1730.05,1595.75z" class="st0"/><path d="M1730.05,1686.02v-69.66c0-1.73,1.41-3.14,3.14-3.14h69.66c1.73,0,3.14,1.41,3.14,3.14v69.66 c0,1.73-1.41,3.14-3.14,3.14h-69.66C1731.45,1689.16,1730.05,1687.76,1730.05,1686.02z" class="st0"/><path d="M1730.05,1774.25v-69.66c0-1.73,1.41-3.14,3.14-3.14h69.66c1.73,0,3.14,1.41,3.14,3.14v69.66 c0,1.73-1.41,3.14-3.14,3.14h-69.66C1731.45,1777.39,1730.05,1775.98,1730.05,1774.25z" class="st0"/><path d="M1730.05,1865.83v-69.66c0-1.73,1.41-3.14,3.14-3.14h69.66c1.73,0,3.14,1.41,3.14,3.14v69.66 c0,1.73-1.41,3.14-3.14,3.14h-69.66C1731.45,1868.97,1730.05,1867.56,1730.05,1865.83z" class="st0"/><path d="M1730.05,1956.29v-69.66c0-1.73,1.41-3.14,3.14-3.14h69.66c1.73,0,3.14,1.41,3.14,3.14v69.66 c0,1.73-1.41,3.14-3.14,3.14h-69.66C1731.45,1959.43,1730.05,1958.02,1730.05,1956.29z" class="st0"/><path d="M1730.05,2045.26v-69.66c0-1.73,1.41-3.14,3.14-3.14h69.66c1.73,0,3.14,1.41,3.14,3.14v69.66 c0,1.73-1.41,3.14-3.14,3.14h-69.66C1731.45,2048.4,1730.05,2047,1730.05,2045.26z" class="st0"/><path d="M1730.05,2137.96v-69.66c0-1.73,1.41-3.14,3.14-3.14h69.66c1.73,0,3.14,1.41,3.14,3.14v69.66 c0,1.73-1.41,3.14-3.14,3.14h-69.66C1731.45,2141.1,1730.05,2139.69,1730.05,2137.96z" class="st0"/><path d="M1730.05,2226.56v-69.66c0-1.73,1.41-3.14,3.14-3.14h69.66c1.73,0,3.14,1.41,3.14,3.14v69.66 c0,1.73-1.41,3.14-3.14,3.14h-69.66C1731.45,2229.7,1730.05,2228.29,1730.05,2226.56z" class="st0"/><path d="M1730.05,2317.76v-69.66c0-1.73,1.41-3.14,3.14-3.14h69.66c1.73,0,3.14,1.41,3.14,3.14v69.66 c0,1.73-1.41,3.14-3.14,3.14h-69.66C1731.45,2320.9,1730.05,2319.5,1730.05,2317.76z" class="st0"/><path d="M1817.99,1187.37v-69.66c0-1.73,1.41-3.14,3.14-3.14h69.66c1.73,0,3.14,1.41,3.14,3.14v69.66 c0,1.73-1.41,3.14-3.14,3.14h-69.66C1819.4,1190.51,1817.99,1189.1,1817.99,1187.37z" class="st0"/><path d="M1817.99,1276.71v-69.66c0-1.73,1.41-3.14,3.14-3.14h69.66c1.73,0,3.14,1.41,3.14,3.14v69.66 c0,1.73-1.41,3.14-3.14,3.14h-69.66C1819.4,1279.85,1817.99,1278.45,1817.99,1276.71z" class="st0"/><path d="M1817.99,1368.29v-69.66c0-1.73,1.41-3.14,3.14-3.14h69.66c1.73,0,3.14,1.41,3.14,3.14v69.66 c0,1.73-1.41,3.14-3.14,3.14h-69.66C1819.4,1371.43,1817.99,1370.03,1817.99,1368.29z" class="st0"/><path d="M1817.99,1457.59v-69.66c0-1.73,1.41-3.14,3.14-3.14h69.66c1.73,0,3.14,1.41,3.14,3.14v69.66 c0,1.73-1.41,3.14-3.14,3.14h-69.66C1819.4,1460.73,1817.99,1459.32,1817.99,1457.59z" class="st0"/><path d="M1817.99,1549.68v-69.66c0-1.73,1.41-3.14,3.14-3.14h69.66c1.73,0,3.14,1.41,3.14,3.14v69.66 c0,1.73-1.41,3.14-3.14,3.14h-69.66C1819.4,1552.82,1817.99,1551.41,1817.99,1549.68z" class="st0"/><path d="M1817.99,1638.19v-69.66c0-1.73,1.41-3.14,3.14-3.14h69.66c1.73,0,3.14,1.41,3.14,3.14v69.66 c0,1.73-1.41,3.14-3.14,3.14h-69.66C1819.4,1641.33,1817.99,1639.92,1817.99,1638.19z" class="st0"/><path d="M1817.99,1730.14v-69.66c0-1.73,1.41-3.14,3.14-3.14h69.66c1.73,0,3.14,1.41,3.14,3.14v69.66 c0,1.73-1.41,3.14-3.14,3.14h-69.66C1819.4,1733.28,1817.99,1731.87,1817.99,1730.14z" class="st0"/><path d="M1817.99,1819.48v-69.66c0-1.73,1.41-3.14,3.14-3.14h69.66c1.73,0,3.14,1.41,3.14,3.14v69.66 c0,1.73-1.41,3.14-3.14,3.14h-69.66C1819.4,1822.62,1817.99,1821.22,1817.99,1819.48z" class="st0"/><path d="M1817.99,1911.24v-69.66c0-1.73,1.41-3.14,3.14-3.14h69.66c1.73,0,3.14,1.41,3.14,3.14v69.66 c0,1.73-1.41,3.14-3.14,3.14h-69.66C1819.4,1914.39,1817.99,1912.98,1817.99,1911.24z" class="st0"/><path d="M1817.99,2002.82v-69.66c0-1.73,1.41-3.14,3.14-3.14h69.66c1.73,0,3.14,1.41,3.14,3.14v69.66 c0,1.73-1.41,3.14-3.14,3.14h-69.66C1819.4,2005.96,1817.99,2004.56,1817.99,2002.82z" class="st0"/><path d="M1817.99,2093.47v-69.66c0-1.73,1.41-3.14,3.14-3.14h69.66c1.73,0,3.14,1.41,3.14,3.14v69.66 c0,1.73-1.41,3.14-3.14,3.14h-69.66C1819.4,2096.61,1817.99,2095.2,1817.99,2093.47z" class="st0"/><path d="M1817.99,2180.58v-69.66c0-1.73,1.41-3.14,3.14-3.14h69.66c1.73,0,3.14,1.41,3.14,3.14v69.66 c0,1.73-1.41,3.14-3.14,3.14h-69.66C1819.4,2183.72,1817.99,2182.32,1817.99,2180.58z" class="st0"/><path d="M1817.99,2311.15v-104.19c0-4.82,3.91-8.73,8.73-8.73h58.49c4.82,0,8.73,3.91,8.73,8.73v104.19 c0,4.82-3.91,8.73-8.73,8.73h-58.49C1821.9,2319.88,1817.99,2315.97,1817.99,2311.15z" class="st0"/><path d="M1730.05,1135.34v-104.19c0-4.82,3.91-8.73,8.73-8.73h58.49c4.82,0,8.73,3.91,8.73,8.73v104.19 c0,4.82-3.91,8.72-8.73,8.72h-58.49C1733.95,1144.07,1730.05,1140.16,1730.05,1135.34z" class="st0"/></g><path d="M2024.9,2273.19V1067.05c0-4.13,3.35-7.47,7.47-7.47h17.5c4.13,0,7.47,3.35,7.47,7.47v1206.14 c0,4.13-3.35,7.47-7.47,7.47h-17.5C2028.25,2280.66,2024.9,2277.32,2024.9,2273.19z" class="st34"/><path d="M2057.35,2400.78V939.5c0-13.43,8.33-26.02,20.29-30.63l595.16-229.62c6.09-2.35,12.04,1.53,12.04,7.87 V2649.9c0,7.3-6.84,11.79-13.87,9.11l-592.15-225.94C2066.17,2428.25,2057.35,2414.96,2057.35,2400.78z" class="st32"/><path d="M2685.63,2662.96l-0.81-1985.53c0,0,13.56,10.59,19.76,17.36c6.21,6.78,15.79,23.98,15.79,23.98v1897.92 c0,0-12.25,19.34-15.79,23.89C2701.04,2645.1,2685.63,2662.96,2685.63,2662.96z" class="st34"/><polygon points="2121.96 2398 2121.96 947.44 2649.95 757.65 2649.95 2586.71" class="st35"/><path d="M2024.9,2273.25V1066.96c0-4.08,3.31-7.38,7.38-7.38h4.61v1221.09h-4.57 C2028.22,2280.66,2024.9,2277.34,2024.9,2273.25z" class="st8"/><path d="M0.61,2769.49V512.69l241.88,36.03l315.14,125.51c0,3.66,62.83,105.38,118.36,292.85 c50.68,171.09,95.28,413.61,80.49,718.18c0,0,20.66,316.82-160.12,894.55L0.61,2769.49z" class="yellow"/><path d="M878.5,2270.95l19.76-5.12c0,0-1.7-55.29,21.49-78.19c0,0,187.49-195.13,221.23-224.58 c0,0,64.54-14.76,55.61,52.46c0,0,2.91,12.17-11.24,29.63l-70.17,78.21l319.63-94.6c10.33-3.06,21.3-3.47,31.74-0.84 c13.67,3.45,29.28,12.55,35.18,35.49c0,0,3.57,12.41-5.03,28.2c-7.4,13.57-20.32,18.1-35.12,22.54l-250.01,85.32l285.25-78.94 c15.84-4.64,45.09-10.44,58.78-1.24c11.69,7.86,21.53,25.51,21.46,43.95c0,0-2.41,31.97-40.8,47l-272.96,85.05l225.74-56.86 c18.16-4.97,61.91-14.65,75.12,3.59c3.54,4.89,5.59,12.11,6.93,19.09c0,0,11.34,24.02-21.43,45.21c-5.67,3.67-22.75,10.06-29.22,12 l-245.33,80.49l168.2-43.6c17.47-5.07,38.53-5.09,49.6,9.35c3.66,4.78,6.45,10.48,7.38,17.2c0,0,8.95,36.61-36.58,51.32 l-300.11,78.7l-68.72,14.18c-18.25,3.77-36.97,4.93-55.52,3.11c-12.96-1.27-27.23-4.1-40.36-9.78c0,0-26.47-10.26-28.9-17.25 l-25.47,8.05L878.5,2270.95z" class="st36"/><path d="M880.03,2281.09l19.76-5.12c0,0-1.7-55.29,21.49-78.19c0,0,187.49-195.13,221.23-224.58 c0,0,64.54-14.76,55.61,52.46c0,0,2.91,12.17-11.24,29.63l-70.17,78.21l319.63-94.6c10.33-3.06,21.3-3.47,31.74-0.84 c13.67,3.45,29.28,12.55,35.18,35.49c0,0,3.57,12.41-5.03,28.2c-7.4,13.57-20.32,18.1-35.12,22.54l-250.01,85.32l285.25-78.94 c15.84-4.64,45.09-10.44,58.78-1.24c11.69,7.86,21.53,25.51,21.46,43.95c0,0-2.41,31.97-40.8,47l-272.96,85.05l225.74-56.86 c18.16-4.97,61.91-14.65,75.12,3.59c3.54,4.89,5.59,12.11,6.93,19.09c0,0,11.34,24.02-21.43,45.21c-5.67,3.67-22.75,10.06-29.22,12 l-245.33,80.49l168.2-43.6c17.47-5.07,38.53-5.09,49.6,9.35c3.66,4.78,6.45,10.48,7.38,17.2c0,0,8.95,36.61-36.58,51.32 l-300.11,78.7l-68.72,14.18c-18.25,3.77-36.97,4.93-55.52,3.11c-12.96-1.27-27.23-4.1-40.36-9.78c0,0-26.47-10.26-28.9-17.25 l-25.47,8.05L880.03,2281.09z" class="st37"/><rect width="35.13" height="319.32" x="895.2" y="2239.6" class="st0" transform="matrix(0.9564 -0.2919 0.2919 0.9564 -660.6743 370.989)"/><path d="M949.2,2557.77l-43.38,10.92c0,0-367.39,103.7-674.15,180.38c-99.6,24.9-184.51,44.49-231.18,53.35 l0.11-406.92c153.12-6.68,644.71-110.28,644.71-110.28l203.77-51.86l22.04,70.39L949.2,2557.77z" class="yellow"/><path d="M822.05,2551.58c4.84,5.77,4.09,14.36-1.68,19.2c-5.77,4.84-14.36,4.09-19.2-1.68 c-4.84-5.77-4.09-14.36,1.68-19.2S817.22,2545.81,822.05,2551.58z" class="st0"/><path d="M779.62,2564.07c4.84,5.77,4.09,14.36-1.68,19.2c-5.77,4.84-14.36,4.09-19.2-1.68 c-4.84-5.77-4.09-14.36,1.68-19.2S774.78,2558.3,779.62,2564.07z" class="st0"/><ellipse cx="726.03" cy="2584.46" class="st0" rx="13.63" ry="13.63" transform="matrix(0.8434 -0.5372 0.5372 0.8434 -1274.7921 794.6959)"/><path d="M1416.25,2066.41l15.15,51.23c1.29,4.38,5.93,6.83,10.28,5.45l27.85-8.86c0,0,21.67-8.36,16.89-37.43 c0,0-4.91-24.21-28.72-28.68c0,0-9.66-1.1-26.9,5.55l-8.99,2.61C1417.45,2057.54,1414.97,2062.08,1416.25,2066.41z" class="st38"/><path d="M1491.69,2156.74l14.5,49.03c1.24,4.19,5.67,6.54,9.84,5.22l26.65-8.48c0,0,20.74-8,16.17-35.82 c0,0-4.7-23.17-27.49-27.45c0,0-9.24-1.05-25.75,5.31l-8.61,2.5C1492.84,2148.25,1490.46,2152.6,1491.69,2156.74z" class="st38"/><path d="M1500.65,2266.59l10.56,42.73c0.9,3.65,4.63,5.85,8.26,4.87l23.25-6.25c0,0,18.15-6.07,15.3-30.18 c0,0-3.14-20.11-22.57-24.68c0,0-7.91-1.26-22.35,3.57l-7.5,1.81C1501.97,2259.34,1499.76,2262.98,1500.65,2266.59z" class="st38"/><path d="M1431.3,2388.23l10.32,41.79c0.88,3.57,4.52,5.72,8.07,4.76l22.74-6.12c0,0,17.75-5.94,14.96-29.51 c0,0-3.07-19.66-22.08-24.13c0,0-7.73-1.23-21.86,3.49l-7.34,1.77C1432.6,2381.13,1430.43,2384.7,1431.3,2388.23z" class="st38"/><path d="M1123.2,2010.19l24.18,21.78c2.06,1.86,5.58,1.13,7.8-1.63l14.2-17.65c0,0,10.63-14.55-0.79-28.65 c0,0-10.07-11.31-25.75-2.97c0,0-6.15,3.79-14.61,15.37l-4.66,5.56C1121.32,2004.68,1121.16,2008.35,1123.2,2010.19z" class="st38"/><path d="M1030.79,1044l18.72,4.85c0,0-1.61,52.37,20.35,74.05c0,0,177.58,184.81,209.53,212.7 c0,0,61.12,13.98,52.67-49.68c0,0,2.75-11.53-10.64-28.06l-66.46-74.07l302.74,89.6c9.78,2.89,20.18,3.29,30.07,0.79 c12.95-3.27,27.73-11.89,33.32-33.62c0,0,3.38-11.75-4.77-26.71c-7.01-12.86-19.24-17.14-33.27-21.35l-236.8-80.81l270.17,74.77 c15,4.39,42.7,9.89,55.68,1.18c11.08-7.44,20.4-24.16,20.33-41.63c0,0-2.28-30.28-38.64-44.51l-258.53-80.56l213.81,53.85 c17.2,4.71,58.63,13.87,71.15-3.4c3.35-4.63,5.3-11.47,6.57-18.08c0,0,10.74-22.75-20.3-42.82c-5.37-3.47-21.55-9.53-27.67-11.37 l-232.36-76.23l159.3,41.3c16.55,4.81,36.5,4.82,46.98-8.86c3.47-4.53,6.11-9.93,6.99-16.29c0,0,8.47-34.68-34.65-48.61 l-284.25-74.54l-65.08-13.43c-17.29-3.57-35.02-4.67-52.58-2.94c-12.28,1.21-25.79,3.88-38.23,9.26c0,0-25.07,9.72-27.37,16.34 l-24.13-7.63L1030.79,1044z" class="st36"/><path d="M1039.14,1039.3l18.72,4.85c0,0-1.61,52.37,20.35,74.05c0,0,177.58,184.81,209.53,212.7 c0,0,61.12,13.98,52.67-49.68c0,0,2.75-11.53-10.64-28.06l-66.46-74.07l302.74,89.6c9.78,2.89,20.18,3.29,30.07,0.79 c12.95-3.27,27.73-11.89,33.32-33.62c0,0,3.38-11.75-4.77-26.71c-7.01-12.86-19.24-17.14-33.27-21.35L1354.6,1107l270.17,74.77 c15,4.39,42.7,9.89,55.68,1.18c11.08-7.44,20.4-24.16,20.33-41.63c0,0-2.28-30.28-38.64-44.51l-258.53-80.56l213.8,53.85 c17.2,4.71,58.63,13.87,71.15-3.4c3.35-4.63,5.3-11.47,6.57-18.08c0,0,10.74-22.75-20.3-42.82c-5.37-3.47-21.55-9.52-27.67-11.37 L1414.8,918.2l159.3,41.3c16.55,4.81,36.5,4.82,46.98-8.86c3.47-4.53,6.11-9.93,6.99-16.29c0,0,8.47-34.68-34.65-48.61 l-284.25-74.54l-65.08-13.43c-17.29-3.57-35.02-4.67-52.58-2.94c-12.28,1.21-25.79,3.88-38.23,9.26c0,0-25.07,9.72-27.37,16.34 l-24.13-7.63L1039.14,1039.3z" class="st37"/><rect width="35.13" height="319.32" x="1044.3" y="770.87" class="st0" transform="matrix(0.9631 0.2692 -0.2692 0.9631 289.723 -251.5188)"/><path d="M999.33,1082.89l-71.65-18.17l-244.82-62.1V1002c-12.32-2.8-24.85-5.62-37.56-8.46 c-219.52-49.12-491.59-103.6-644.7-110.27L0.49,459.54c46.66,8.86,134.07,27.14,233.4,53.15 c184.41,48.29,413.17,126.62,587.05,176.26l278.02,70.52L999.33,1082.89z" class="yellow"/><path d="M987.04,802.26c4.84-5.77,4.09-14.36-1.68-19.2c-5.77-4.84-14.36-4.09-19.2,1.68 c-4.84,5.77-4.09,14.36,1.68,19.2C973.61,808.78,982.2,808.02,987.04,802.26z" class="st0"/><path d="M944.61,789.77c4.84-5.77,4.09-14.36-1.68-19.2c-5.77-4.84-14.36-4.08-19.2,1.68 c-4.84,5.77-4.09,14.36,1.68,19.2C931.18,796.29,939.77,795.53,944.61,789.77z" class="st0"/><path d="M901.46,778.13c4.84-5.77,4.09-14.36-1.68-19.2c-5.77-4.84-14.36-4.09-19.2,1.68 c-4.84,5.77-4.09,14.36,1.68,19.2C888.03,784.65,896.62,783.9,901.46,778.13z" class="st0"/><path d="M1547.02,1242.64l14.34-48.52c1.23-4.14,5.62-6.47,9.73-5.16l26.38,8.39c0,0,20.53,7.91,16,35.45 c0,0-4.65,22.93-27.2,27.16c0,0-9.15,1.04-25.48-5.26l-8.52-2.47C1548.16,1251.04,1545.81,1246.74,1547.02,1242.64z" class="st38"/><path d="M1618.47,1157.08l13.73-46.44c1.17-3.97,5.37-6.19,9.32-4.94l25.24,8.03c0,0,19.65,7.57,15.31,33.93 c0,0-4.45,21.94-26.04,26c0,0-8.75,0.99-24.39-5.03l-8.15-2.37C1619.56,1165.12,1617.31,1161,1618.47,1157.08z" class="st38"/><path d="M1626.96,1053.03l10-40.47c0.85-3.46,4.38-5.54,7.82-4.61l22.02,5.92c0,0,17.19,5.75,14.49,28.58 c0,0-2.98,19.04-21.38,23.37c0,0-7.49,1.2-21.17-3.38l-7.1-1.72C1628.21,1059.9,1626.11,1056.45,1626.96,1053.03z" class="st38"/><path d="M1561.28,937.83l9.78-39.58c0.84-3.38,4.28-5.42,7.65-4.51l21.54,5.79c0,0,16.81,5.62,14.17,27.95 c0,0-2.91,18.62-20.91,22.86c0,0-7.33,1.17-20.7-3.3l-6.95-1.68C1562.5,944.55,1560.45,941.17,1561.28,937.83z" class="st38"/><path d="M1269.46,1295.88l22.9-20.63c1.96-1.76,5.29-1.07,7.39,1.54l13.45,16.71c0,0,10.07,13.78-0.75,27.14 c0,0-9.54,10.72-24.39,2.81c0,0-5.82-3.59-13.83-14.55l-4.42-5.27C1267.68,1301.1,1267.53,1297.62,1269.46,1295.88z" class="st38"/><path d="M999.33,1082.89c-14.81-5.17-39.52-11.32-71.65-18.17l-244.82-62.1V1002c-12.32-2.8-24.85-5.62-37.56-8.46 c-219.52-49.12-491.59-103.6-644.7-110.27v-139l734.94,181.58c0,0,71.98,20.44,164.09,34.4c91.69,13.89,157.23-64.13,157.23-64.13 L999.33,1082.89z" class="darkYellow"/><path d="M894.66,2379c0,0-40.97-29.19-99.5-36.3c-58.53-7.11-127.97,8.67-127.97,8.67L0.6,2506.99v-111.48 c153.12-6.68,644.71-110.28,644.71-110.28l203.77-51.86L894.66,2379z" class="darkYellow"/><path d="M3876.47,814.41l52.9-51.64c21.17-20.66,53.12-25.66,79.55-12.38c55.28,27.75,146.3,84.85,192.56,176.85 c16.41,32.64,5.97,72.39-24.3,92.84l-51.85,35.03C4125.33,1055.12,4086.9,906.29,3876.47,814.41z" class="st39"/><path d="M5456.26,1807.92c-1.8,26.59-9.61,51.27-20.68,73.56c-0.33,0.68-0.65,1.33-0.97,1.96 c-38.1,75.07-148.78,111.52-232.79,117.04l-34.82,3.1l-8.89,0.79l-579.51,51.64c146.34-176.35,7.51-330.19,7.51-330.19 l162.81-38.07c51.45-12.03,100.94-31.19,147.26-56.62c105.03-57.67,328.46-149.77,481.63,3.39c3.68,3.69,7.22,7.36,10.6,11.02 c29.24,31.55,47.63,62.11,57.85,91.2C5455.01,1761.64,5457.79,1785.46,5456.26,1807.92z" class="st14"/><path d="M4505.82,2073.19l73.92-0.89c29.58-0.36,55.7-19.42,65.01-47.5c19.46-58.71,43.45-163.45,11.1-261.21 c-11.47-34.68-46.97-55.41-82.83-48.47l-62.36,10.06C4510.66,1725.18,4586.8,1857.16,4505.82,2073.19z" class="st39"/><path d="M4528.85,716.83c0,0-33.8-46.88-74.15-91.29c-28.12-30.95-83.78-82.54-83.78-82.54 c-5.26-5.79-6.25-13.55-2.2-17.24l3.69-3.35c4.06-3.69,11-1.17,16.95,3.83c0,0,36.82,31.06,83.68,82.63 c50.19,55.24,74.26,91.2,74.26,91.2c5.32,8.12,6.25,13.55,2.2,17.24l-3.69,3.35C4541.74,724.35,4534.12,722.63,4528.85,716.83z" class="st39"/><path d="M4576.09,675.34c0,0-33.8-46.88-74.15-91.29c-28.12-30.95-83.78-82.54-83.78-82.54 c-5.26-5.79-6.25-13.55-2.2-17.24l3.69-3.35c4.06-3.69,11-1.17,16.95,3.83c0,0,36.82,31.06,83.68,82.63 c50.19,55.24,74.26,91.2,74.26,91.2c5.32,8.12,6.25,13.55,2.2,17.24l-3.69,3.35C4588.98,682.86,4581.35,681.13,4576.09,675.34z" class="st39"/><path d="M4624.99,635.88c0,0-33.8-46.88-74.15-91.29c-28.12-30.95-83.78-82.54-83.78-82.54 c-5.26-5.79-6.25-13.55-2.2-17.24l3.69-3.35c4.06-3.69,11-1.17,16.95,3.83c0,0,36.82,31.06,83.68,82.63 c50.19,55.24,74.26,91.2,74.26,91.2c5.32,8.12,6.25,13.55,2.2,17.24l-3.69,3.35C4637.88,643.4,4630.25,641.68,4624.99,635.88z" class="st39"/><path d="M5083.87,1926.41c0,0-0.32-57.8-7.4-117.38c-4.94-41.52-20.32-115.84-20.32-115.84 c-0.92-7.77,2.77-14.66,8.22-15.31l4.95-0.59c5.44-0.65,9.64,5.43,11.58,12.96c0,0,11.96,46.66,20.18,115.86 c8.81,74.11,7.54,117.36,7.54,117.36c-0.38,9.7-2.77,14.66-8.22,15.31l-4.95,0.59C5090,1940.02,5084.79,1934.19,5083.87,1926.41z" class="st39"/><path d="M5146.42,1920.04c0,0-0.32-57.8-7.4-117.38c-4.94-41.52-20.32-115.84-20.32-115.84 c-0.92-7.77,2.77-14.66,8.22-15.31l4.95-0.59c5.44-0.65,9.64,5.43,11.58,12.96c0,0,11.96,46.66,20.18,115.86 c8.81,74.11,7.54,117.36,7.54,117.36c-0.38,9.7-2.77,14.66-8.22,15.31l-4.95,0.59C5152.55,1933.64,5147.34,1927.81,5146.42,1920.04 z" class="st39"/><path d="M5209.14,1916.29c0,0-0.32-57.8-7.4-117.38c-4.94-41.52-20.32-115.84-20.32-115.84 c-0.92-7.77,2.77-14.66,8.22-15.31l4.95-0.59c5.44-0.65,9.64,5.43,11.58,12.96c0,0,11.96,46.66,20.18,115.86 c8.81,74.11,7.54,117.36,7.54,117.36c-0.38,9.7-2.77,14.66-8.22,15.31l-4.95,0.59C5215.27,1929.9,5210.07,1924.07,5209.14,1916.29z" class="st39"/><path d="M4766.84,365.13v0.01c-137.16-64.86-433.41,80.98-433.41,80.98l86.61-72.44 c63.3-55.49,167.34-107.99,247.37-81.84C4705,304.12,4741.26,326.35,4766.84,365.13z" class="st40"/><path d="M5158.11,2004.37l8.89-0.79C5164.08,2003.92,5161.11,2004.18,5158.11,2004.37z" class="st40"/><path d="M5456.26,1807.92c-2.51,33.83-13.41,58.44-20.68,73.56c-0.33,0.68-0.65,1.33-0.97,1.96 c-38.1,75.07-148.78,111.52-232.79,117.04l-34.82,3.1c189.89-21.81,218.46-351.13,221.41-358.04 c29.24,31.55,47.63,62.11,57.85,91.2C5455.01,1761.64,5457.79,1785.46,5456.26,1807.92z" class="st40"/></g></svg>